<svg width="375" height="100" viewBox="0 0 375 100" fill="none" xmlns="http://www.w3.org/2000/svg">
<path fill-rule="evenodd" clip-rule="evenodd" d="M0 40V60H20V80H0V100H20V80H40V60H60V40H40V20H60V0H40V20H20V40H0ZM20 40H40V60H20V40Z" fill="black"/>
<path d="M103.381 81.4545V39.4545H111.733V44.5852H112.111C112.482 43.7633 113.019 42.928 113.722 42.0795C114.438 41.2178 115.366 40.5019 116.506 39.9318C117.659 39.3485 119.091 39.0568 120.801 39.0568C123.028 39.0568 125.083 39.6402 126.966 40.8068C128.848 41.9602 130.353 43.7036 131.48 46.0369C132.607 48.357 133.17 51.267 133.17 54.767C133.17 58.1742 132.62 61.0511 131.52 63.3977C130.433 65.7311 128.948 67.5009 127.065 68.7074C125.196 69.9006 123.101 70.4972 120.781 70.4972C119.137 70.4972 117.739 70.2254 116.585 69.6818C115.445 69.1383 114.51 68.4555 113.781 67.6335C113.052 66.7983 112.495 65.9564 112.111 65.108H111.852V81.4545H103.381ZM111.673 54.7273C111.673 56.5436 111.925 58.1278 112.429 59.4801C112.933 60.8324 113.662 61.8864 114.616 62.642C115.571 63.3845 116.731 63.7557 118.097 63.7557C119.475 63.7557 120.642 63.3778 121.597 62.6222C122.551 61.8532 123.274 60.7926 123.764 59.4403C124.268 58.0748 124.52 56.5038 124.52 54.7273C124.52 52.964 124.275 51.4129 123.784 50.0739C123.294 48.7348 122.571 47.6875 121.616 46.9318C120.662 46.1761 119.489 45.7983 118.097 45.7983C116.718 45.7983 115.551 46.1629 114.597 46.892C113.655 47.6212 112.933 48.6553 112.429 49.9943C111.925 51.3333 111.673 52.911 111.673 54.7273ZM150.074 70.4972C147.754 70.4972 145.652 69.9006 143.77 68.7074C141.901 67.5009 140.416 65.7311 139.315 63.3977C138.228 61.0511 137.685 58.1742 137.685 54.767C137.685 51.267 138.248 48.357 139.375 46.0369C140.502 43.7036 142 41.9602 143.869 40.8068C145.752 39.6402 147.813 39.0568 150.054 39.0568C151.764 39.0568 153.189 39.3485 154.33 39.9318C155.483 40.5019 156.411 41.2178 157.114 42.0795C157.83 42.928 158.373 43.7633 158.744 44.5852H159.003V39.4545H167.455V70H159.102V65.108H158.744C158.347 65.9564 157.783 66.7983 157.054 67.6335C156.338 68.4555 155.403 69.1383 154.25 69.6818C153.11 70.2254 151.718 70.4972 150.074 70.4972ZM152.759 63.7557C154.124 63.7557 155.277 63.3845 156.219 62.642C157.173 61.8864 157.902 60.8324 158.406 59.4801C158.923 58.1278 159.182 56.5436 159.182 54.7273C159.182 52.911 158.93 51.3333 158.426 49.9943C157.922 48.6553 157.193 47.6212 156.239 46.892C155.284 46.1629 154.124 45.7983 152.759 45.7983C151.366 45.7983 150.193 46.1761 149.239 46.9318C148.284 47.6875 147.562 48.7348 147.071 50.0739C146.58 51.4129 146.335 52.964 146.335 54.7273C146.335 56.5038 146.58 58.0748 147.071 59.4403C147.575 60.7926 148.297 61.8532 149.239 62.6222C150.193 63.3778 151.366 63.7557 152.759 63.7557ZM188.181 82.0909C185.437 82.0909 183.084 81.7131 181.121 80.9574C179.173 80.215 177.621 79.2008 176.468 77.9148C175.315 76.6288 174.566 75.1837 174.221 73.5795L182.056 72.5256C182.295 73.1354 182.673 73.7055 183.19 74.2358C183.707 74.7661 184.389 75.1903 185.238 75.5085C186.1 75.84 187.147 76.0057 188.38 76.0057C190.223 76.0057 191.741 75.5549 192.934 74.6534C194.14 73.7652 194.744 72.2737 194.744 70.179V64.5909H194.386C194.014 65.4394 193.458 66.2415 192.715 66.9972C191.973 67.7528 191.018 68.3693 189.852 68.8466C188.685 69.3239 187.293 69.5625 185.675 69.5625C183.382 69.5625 181.294 69.0322 179.411 67.9716C177.542 66.8977 176.05 65.2604 174.937 63.0597C173.836 60.8456 173.286 58.0483 173.286 54.6676C173.286 51.2074 173.85 48.3172 174.977 45.9972C176.103 43.6771 177.602 41.9403 179.471 40.7869C181.353 39.6335 183.415 39.0568 185.656 39.0568C187.366 39.0568 188.798 39.3485 189.951 39.9318C191.104 40.5019 192.032 41.2178 192.735 42.0795C193.451 42.928 194.001 43.7633 194.386 44.5852H194.704V39.4545H203.116V70.2983C203.116 72.8968 202.479 75.071 201.207 76.821C199.934 78.571 198.171 79.8835 195.917 80.7585C193.676 81.6468 191.098 82.0909 188.181 82.0909ZM188.36 63.1989C189.726 63.1989 190.879 62.8608 191.82 62.1847C192.775 61.4953 193.504 60.5142 194.008 59.2415C194.525 57.9555 194.783 56.4176 194.783 54.6278C194.783 52.8381 194.531 51.2869 194.028 49.9744C193.524 48.6487 192.795 47.6212 191.84 46.892C190.886 46.1629 189.726 45.7983 188.36 45.7983C186.968 45.7983 185.795 46.1761 184.84 46.9318C183.886 47.6742 183.163 48.7083 182.673 50.0341C182.182 51.3598 181.937 52.8911 181.937 54.6278C181.937 56.3911 182.182 57.9157 182.673 59.2017C183.176 60.4744 183.899 61.4621 184.84 62.1648C185.795 62.8542 186.968 63.1989 188.36 63.1989ZM223.778 70.5966C220.636 70.5966 217.931 69.9602 215.664 68.6875C213.41 67.4015 211.674 65.5852 210.454 63.2386C209.234 60.8788 208.624 58.0881 208.624 54.8665C208.624 51.7244 209.234 48.9669 210.454 46.5938C211.674 44.2206 213.39 42.3712 215.604 41.0455C217.832 39.7197 220.443 39.0568 223.44 39.0568C225.455 39.0568 227.331 39.3816 229.067 40.0312C230.817 40.6676 232.342 41.6288 233.641 42.9148C234.954 44.2008 235.975 45.8182 236.704 47.767C237.433 49.7027 237.798 51.9697 237.798 54.5682V56.8949H212.005V51.6449H229.823C229.823 50.4252 229.558 49.3447 229.028 48.4034C228.497 47.4621 227.762 46.7263 226.82 46.196C225.892 45.6525 224.812 45.3807 223.579 45.3807C222.293 45.3807 221.153 45.679 220.158 46.2756C219.177 46.8589 218.408 47.6477 217.852 48.642C217.295 49.6231 217.01 50.7169 216.996 51.9233V56.9148C216.996 58.4261 217.275 59.732 217.832 60.8324C218.402 61.9328 219.204 62.7812 220.238 63.3778C221.272 63.9744 222.498 64.2727 223.917 64.2727C224.858 64.2727 225.72 64.1402 226.502 63.875C227.284 63.6098 227.954 63.2121 228.511 62.6818C229.067 62.1515 229.492 61.5019 229.783 60.733L237.619 61.25C237.221 63.1326 236.406 64.7765 235.173 66.1818C233.953 67.5739 232.375 68.661 230.44 69.4432C228.517 70.2121 226.297 70.5966 223.778 70.5966ZM249.133 70L240.82 39.4545H249.391L254.124 59.9773H254.403L259.335 39.4545H267.746L272.758 59.858H273.016L277.67 39.4545H286.221L277.928 70H268.96L263.71 50.7898H263.332L258.082 70H249.133ZM301.23 70.4972C298.91 70.4972 296.809 69.9006 294.926 68.7074C293.057 67.5009 291.572 65.7311 290.472 63.3977C289.384 61.0511 288.841 58.1742 288.841 54.767C288.841 51.267 289.404 48.357 290.531 46.0369C291.658 43.7036 293.156 41.9602 295.026 40.8068C296.908 39.6402 298.97 39.0568 301.21 39.0568C302.92 39.0568 304.346 39.3485 305.486 39.9318C306.639 40.5019 307.567 41.2178 308.27 42.0795C308.986 42.928 309.529 43.7633 309.901 44.5852H310.159V39.4545H318.611V70H310.259V65.108H309.901C309.503 65.9564 308.939 66.7983 308.21 67.6335C307.494 68.4555 306.56 69.1383 305.406 69.6818C304.266 70.2254 302.874 70.4972 301.23 70.4972ZM303.915 63.7557C305.28 63.7557 306.434 63.3845 307.375 62.642C308.33 61.8864 309.059 60.8324 309.562 59.4801C310.08 58.1278 310.338 56.5436 310.338 54.7273C310.338 52.911 310.086 51.3333 309.582 49.9943C309.079 48.6553 308.349 47.6212 307.395 46.892C306.44 46.1629 305.28 45.7983 303.915 45.7983C302.523 45.7983 301.349 46.1761 300.395 46.9318C299.44 47.6875 298.718 48.7348 298.227 50.0739C297.737 51.4129 297.491 52.964 297.491 54.7273C297.491 56.5038 297.737 58.0748 298.227 59.4403C298.731 60.7926 299.454 61.8532 300.395 62.6222C301.349 63.3778 302.523 63.7557 303.915 63.7557ZM325.576 29.2727H334.048V60.8523C334.061 61.8201 334.233 62.5227 334.565 62.9602C334.909 63.3845 335.493 63.5966 336.315 63.5966C336.739 63.5833 337.07 63.5568 337.309 63.517C337.548 63.4773 337.746 63.4242 337.906 63.358L339.258 69.5227C338.82 69.6553 338.283 69.7945 337.647 69.9403C337.024 70.0729 336.182 70.1591 335.121 70.1989C331.873 70.3182 329.474 69.7083 327.923 68.3693C326.371 67.017 325.589 64.8892 325.576 61.9858V29.2727ZM353.675 70.4972C351.355 70.4972 349.254 69.9006 347.371 68.7074C345.502 67.5009 344.017 65.7311 342.917 63.3977C341.83 61.0511 341.286 58.1742 341.286 54.767C341.286 51.267 341.85 48.357 342.977 46.0369C344.103 43.7036 345.602 41.9602 347.471 40.8068C349.353 39.6402 351.415 39.0568 353.656 39.0568C355.366 39.0568 356.791 39.3485 357.931 39.9318C359.085 40.5019 360.013 41.2178 360.715 42.0795C361.431 42.928 361.975 43.7633 362.346 44.5852H362.604V29.2727H371.056V70H362.704V65.108H362.346C361.948 65.9564 361.385 66.7983 360.656 67.6335C359.94 68.4555 359.005 69.1383 357.852 69.6818C356.711 70.2254 355.319 70.4972 353.675 70.4972ZM356.36 63.7557C357.726 63.7557 358.879 63.3845 359.82 62.642C360.775 61.8864 361.504 60.8324 362.008 59.4801C362.525 58.1278 362.783 56.5436 362.783 54.7273C362.783 52.911 362.531 51.3333 362.028 49.9943C361.524 48.6553 360.795 47.6212 359.84 46.892C358.886 46.1629 357.726 45.7983 356.36 45.7983C354.968 45.7983 353.795 46.1761 352.84 46.9318C351.886 47.6875 351.163 48.7348 350.673 50.0739C350.182 51.4129 349.937 52.964 349.937 54.7273C349.937 56.5038 350.182 58.0748 350.673 59.4403C351.176 60.7926 351.899 61.8532 352.84 62.6222C353.795 63.3778 354.968 63.7557 356.36 63.7557Z" fill="black"/>
</svg>
